<?xml version="1.0" encoding="utf-8"?>
<!-- Generator: Adobe Illustrator 19.0.0, SVG Export Plug-In . SVG Version: 6.00 Build 0)  -->
<svg version="1.1" id="Layer_1" xmlns="http://www.w3.org/2000/svg" xmlns:xlink="http://www.w3.org/1999/xlink" x="0px" y="0px"
	 viewBox="0 0 500 500" style="enable-background:new 0 0 500 500;" xml:space="preserve">
<style type="text/css">
	.st0{fill:#0073BC;}
</style>
<g id="XMLID_1_">
	<path id="XMLID_3_" class="st0" d="M68,231.5l46.2,0l0,57.4c-0.1,11.1,30,17,33.2,16.9l15-0.1c2.5,0,44.9-0.3,44.9-20.1l1.3-133.4
		l182.2-0.2c18.3,0.2,38.5,26.9,39,53.9l0.2,13.5c-0.1,27.5-19.5,54.9-34.4,54.8l-25.3,0.6l62.3,72.1l-61.8,0l-90.1-114.2l92.5-0.2
		c3,0,10.7-8,10.7-15.6l-0.5-10c-0.2-4.3-6.3-10.8-10-10.9l-119.2-1.1l-0.6,100.9c0.1,37.4-47.3,52.5-78.6,52.6l-27.7,0
		c-14-0.3-79.6-7.5-79.7-52.2L68,231.5z"/>
</g>
</svg>
